<svg xmlns="http://www.w3.org/2000/svg" xmlns:xlink="http://www.w3.org/1999/xlink" xmlns:a="http://ns.adobe.com/AdobeSVGViewerExtensions/3.0/" x="0px" y="0px" width="171px" height="55px" viewBox="-0.907 -0.567 171 55" xml:space="preserve"><defs></defs><path fill="#FFFFFF" d="M107.953,7.902c-0.483-0.048-1.04-0.073-1.667-0.073h-1.705v9.129c0,0.823,0.047,1.643,0.145,2.464 c0.164,0.873,0.363,1.566,0.663,2.403h-3.91c0.3-0.84,0.502-1.534,0.666-2.41c0.097-0.819,0.144-1.637,0.144-2.457V7.829h-1.705 c-0.627,0-1.184,0.024-1.667,0.073c-0.717,0.064-1.378,0.328-2.032,0.608V5.652h13.102V8.51 C109.331,8.23,108.671,7.966,107.953,7.902L107.953,7.902z"></path><path fill="#FFFFFF" d="M94.547,10.519v8.492c0,0.337,0.023,0.77,0.071,1.3c0.06,0.588,0.169,0.964,0.375,1.514h-2.646 c-0.331-0.683-0.815-1.39-1.256-2.006L83.766,9.758v7.203c0,0.822,0.047,1.643,0.145,2.464c0.164,0.872,0.366,1.567,0.665,2.402 h-3.911c0.3-0.838,0.502-1.535,0.666-2.41c0.097-0.819,0.144-1.636,0.144-2.457V8.468c0-0.337-0.023-0.77-0.072-1.3 c-0.059-0.588-0.169-0.966-0.375-1.517h2.795c0.333,0.689,0.813,1.388,1.257,2.009l7.177,9.889v-7.03 c0-0.822-0.048-1.643-0.145-2.464c-0.164-0.872-0.366-1.567-0.665-2.402h3.911c-0.301,0.838-0.502,1.535-0.666,2.41 C94.593,8.882,94.547,9.699,94.547,10.519L94.547,10.519z"></path><path fill="#FFFFFF" d="M66.189,10.517c0-0.821-0.047-1.641-0.145-2.462c-0.164-0.872-0.365-1.567-0.665-2.403h3.911 c-0.301,0.839-0.501,1.536-0.666,2.411c-0.097,0.818-0.143,1.635-0.143,2.454v1.496v4.062c0,2.049,1.661,3.71,3.71,3.71 s3.71-1.661,3.71-3.71v-4.062l-0.001-1.496c0-0.821-0.047-1.641-0.145-2.462c-0.164-0.872-0.365-1.567-0.665-2.403h3.912 c-0.301,0.839-0.502,1.536-0.666,2.411c-0.097,0.818-0.144,1.635-0.144,2.454v1.496v4.062c0,3.315-2.688,6.003-6.002,6.003 c-3.315,0-6.003-2.688-6.003-6.003v-4.062L66.189,10.517L66.189,10.517z"></path><path fill="#FFFFFF" d="M49.958,5.651h3.855c0.073,0.305,0.142,0.611,0.224,0.913c0.118,0.357,0.26,0.683,0.795,1.532 c0.486,0.739,1.852,2.672,2.319,3.332l2.134-3.333c0.319-0.481,0.524-0.853,0.629-1.118c0.165-0.42,0.234-0.882,0.303-1.326h3.557 c-0.55,0.657-1.061,1.325-1.52,2.049c0,0-2.926,4.51-3.707,5.709l4.327,6.382c0.793,1.071,1.743,2.033,1.743,2.033h-4.374 c0.094-0.775,0.113-1.218-0.347-1.947c-0.037-0.074-2.748-4.43-2.748-4.43l-2.054,2.912c-0.771,1.222-1.243,2.045-1.588,3.465 l-3.728,0.001c1.283-1.348,2.38-2.877,3.388-4.438l2.618-3.898l-3.202-4.545C51.33,7.116,49.958,5.651,49.958,5.651L49.958,5.651z"></path><path fill="#FFFFFF" d="M120.018,7.843c-0.39-0.12-1.049-0.226-1.704-0.229c-1.679-0.006-2.96,0.463-4.04,1.403 c-0.979,0.851-1.572,2.04-1.612,3.727h7.356V7.843L120.018,7.843z M122.697,21.673l0.058,0.154h-3.186 c0.207-0.551,0.316-0.93,0.376-1.519c0.049-0.531,0.071-0.963,0.071-1.3l0.001-4.09h-7.358v2.684v1.438 c0.026,0.939,0.104,1.855,0.225,2.788h-3.325c0.301-0.84,0.502-1.538,0.666-2.414c0.098-0.819,0.144-1.637,0.144-2.458v-1.611V14.8 v-1.838c0-2.189,0.674-3.997,2.03-5.402c1.406-1.406,3.291-2.16,5.726-2.16c0.598,0,1.069,0.019,1.684,0.083 c0.837,0.075,1.669,0.187,2.501,0.307l-0.001,13.218c0,0.337,0.023,0.77,0.072,1.3C122.43,20.807,122.521,21.206,122.697,21.673 L122.697,21.673z"></path><path fill="#FFFFFF" d="M166.504,29.86c-0.39-0.121-1.049-0.227-1.704-0.229c-1.679-0.006-2.959,0.463-4.04,1.402 c-0.979,0.851-1.571,2.041-1.612,3.728h7.356V29.86L166.504,29.86z M169.185,43.691l0.058,0.153h-3.187 c0.207-0.551,0.316-0.93,0.376-1.52c0.049-0.529,0.072-0.962,0.072-1.3v-4.09h-7.358v2.684v1.438 c0.026,0.939,0.104,1.854,0.227,2.786l-3.327,0.001c0.302-0.84,0.502-1.538,0.667-2.413c0.097-0.819,0.144-1.637,0.144-2.458v-1.611 v-0.545v-1.838c0-2.189,0.673-3.997,2.029-5.402c1.406-1.406,3.291-2.159,5.726-2.159c0.598,0,1.069,0.019,1.684,0.083 c0.837,0.074,1.669,0.187,2.501,0.307v13.217c0,0.338,0.022,0.771,0.071,1.3C168.916,42.825,169.009,43.224,169.185,43.691 L169.185,43.691z"></path><path fill="#FFFFFF" d="M153.136,32.538v6.438c0,0.822,0.047,1.643,0.145,2.464c0.164,0.872,0.365,1.568,0.665,2.404h-3.91 c0.301-0.839,0.501-1.536,0.665-2.412c0.097-0.819,0.144-1.636,0.144-2.456v-6.438c0-0.822-0.047-1.643-0.145-2.464 c-0.163-0.872-0.365-1.568-0.665-2.405h3.91c-0.301,0.84-0.501,1.538-0.665,2.413C153.183,30.901,153.136,31.718,153.136,32.538 L153.136,32.538z"></path><path fill="#FFFFFF" d="M130.141,32.537v6.439c0,0.822,0.047,1.642,0.145,2.463c0.164,0.873,0.365,1.569,0.665,2.405h-3.91 c0.301-0.84,0.501-1.537,0.665-2.412c0.098-0.819,0.144-1.636,0.144-2.456v-6.439c0-0.822-0.047-1.642-0.145-2.463 c-0.164-0.873-0.365-1.569-0.664-2.405h3.91c-0.301,0.84-0.502,1.537-0.666,2.413C130.187,30.9,130.141,31.718,130.141,32.537 L130.141,32.537z"></path><path fill="#FFFFFF" d="M118.669,32.536v9.033h1.7c0.822,0,1.643-0.047,2.464-0.145c0.873-0.164,1.569-0.365,2.406-0.665 l-0.003,3.083h-9.668c0.301-0.84,0.501-1.535,0.665-2.411c0.097-0.819,0.144-1.636,0.144-2.456v-6.44 c0-0.822-0.047-1.643-0.145-2.464c-0.164-0.873-0.365-1.569-0.665-2.406h3.911c-0.301,0.84-0.502,1.537-0.666,2.414 C118.716,30.898,118.669,31.716,118.669,32.536L118.669,32.536z"></path><path fill="#FFFFFF" d="M110.07,29.861c-0.39-0.121-1.049-0.227-1.704-0.229c-1.679-0.006-2.959,0.463-4.04,1.402 c-0.978,0.851-1.572,2.041-1.612,3.728h7.356V29.861L110.07,29.861z M112.751,43.692l0.059,0.15h-3.187 c0.206-0.551,0.316-0.927,0.375-1.516c0.049-0.531,0.072-0.964,0.072-1.301v-4.09h-7.358v2.684v1.438 c0.026,0.939,0.105,1.853,0.228,2.784h-3.327c0.301-0.84,0.502-1.535,0.666-2.41c0.097-0.82,0.144-1.638,0.144-2.458v-1.611v-0.545 V34.98c0-2.19,0.673-3.997,2.029-5.402c1.406-1.406,3.292-2.16,5.726-2.16c0.599,0,1.069,0.019,1.684,0.084 c0.837,0.074,1.67,0.187,2.501,0.307v13.217c0,0.338,0.022,0.771,0.071,1.301C112.483,42.825,112.575,43.225,112.751,43.692 L112.751,43.692z"></path><path fill="#FFFFFF" d="M91.188,34.538c0.932,0.122,1.848,0.198,2.787,0.225h1.439h2.598v1.306c0,5.257-3.72,8.029-7.601,8.029 c-4.489-0.091-8.137-3.775-8.193-8.331c0.061-5.024,4.461-8.98,9.551-8.266c2.049,0.288,3.759,1.252,5.141,2.776l-1.284,2.673 c-1.187-1.918-2.869-3.166-5.212-3.166c-3.231,0-5.865,2.656-5.915,5.967c0.05,3.326,2.684,5.982,5.914,5.982 c2.846,0,5.001-1.803,5.257-4.797l-0.343,0.001h-0.439c-0.627,0-1.184,0.024-1.666,0.072c-0.718,0.064-1.378,0.328-2.032,0.608 L91.188,34.538L91.188,34.538z"></path><path fill="#FFFFFF" d="M73.394,34.311v3.077c-0.551-0.207-0.93-0.316-1.518-0.376c-0.463-0.042-0.85-0.064-1.166-0.07h-3.004v4.617 h4.04c0.568-0.003,1.076-0.027,1.521-0.072c0.717-0.064,1.377-0.328,2.031-0.607l0,2.965H64.61c0.3-0.839,0.501-1.535,0.666-2.41 c0.097-0.819,0.143-1.637,0.143-2.457v-6.44c0-0.822-0.047-1.643-0.145-2.464c-0.164-0.872-0.365-1.567-0.664-2.403l10.688,0l0,2.97 c-0.654-0.28-1.314-0.544-2.031-0.607c-0.483-0.049-1.04-0.073-1.667-0.073h-3.894v4.799h2.87c0.337,0,0.77-0.023,1.3-0.072 C72.696,34.615,73.394,34.311,73.394,34.311L73.394,34.311z"></path><path fill="#FFFFFF" d="M53.053,41.556h1.899c3.032,0.009,5.48-2.58,5.48-5.797c0-3.219-2.451-5.808-5.448-5.808l-1.932-0.002 V41.556L53.053,41.556z M50.623,41.43c0.097-0.818,0.144-1.636,0.144-2.456v-6.438c0-0.822-0.047-1.643-0.145-2.463 c-0.164-0.873-0.365-1.567-0.665-2.404h4.998c4.305,0.004,7.756,3.631,7.756,8.089c0,4.456-3.451,8.084-7.725,8.084l-0.164-0.002 h-4.865C50.258,43.002,50.459,42.306,50.623,41.43L50.623,41.43z"></path><path fill="#FFFFFF" d="M141.115,41.731c2.344,0,4.025-1.248,5.213-3.166l1.283,2.673c-1.382,1.524-3.091,2.489-5.14,2.776 c-5.09,0.715-9.49-3.241-9.552-8.249c0.061-5.024,4.462-8.98,9.552-8.266c2.048,0.288,3.758,1.252,5.14,2.776l-1.283,2.674 c-1.187-1.918-2.869-3.167-5.213-3.167c-3.23,0-5.864,2.656-5.914,5.966C135.251,39.076,137.885,41.731,141.115,41.731 L141.115,41.731z"></path><polygon fill="#FFFFFF" points="0,0 41.071,0 41.071,54 0,54 "></polygon><polygon fill="#009EE0" points="1.145,1.145 39.927,1.145 39.927,52.855 1.145,52.855 "></polygon><polygon fill="#FFFFFF" points="15.402,12.374 15.549,13.187 25.521,13.187 25.669,12.374 "></polygon><path fill="#FFFFFF" d="M15.106,11.561h1.034l-1.477-2.068c-0.197-0.395-0.296-0.715-0.296-0.96c0-0.443,0.148-0.813,0.444-1.108 c0.344-0.345,0.763-0.518,1.255-0.518c0.295,0,0.493,0.025,0.591,0.074c-0.147,0.394-0.222,0.763-0.222,1.108 c0,0.492,0.1,0.911,0.296,1.255l1.256,2.216h0.96l-1.478-2.585c-0.147-0.295-0.222-0.591-0.222-0.886 c0-0.444,0.148-0.813,0.444-1.108c0.344-0.345,0.738-0.518,1.182-0.518c0.542,0,0.96,0.198,1.255,0.591v4.507h0.813V7.055 c0.295-0.393,0.714-0.591,1.256-0.591c0.443,0,0.813,0.173,1.108,0.518c0.345,0.295,0.517,0.664,0.517,1.108 c0,0.295-0.073,0.591-0.222,0.886l-1.477,2.585h0.96l1.256-2.216C24.537,9,24.635,8.582,24.635,8.09 c0-0.345-0.074-0.715-0.222-1.108c0.148-0.049,0.345-0.074,0.592-0.074c0.493,0,0.886,0.172,1.181,0.518 c0.345,0.295,0.518,0.665,0.518,1.108c0,0.246-0.098,0.566-0.295,0.96l-1.478,2.068h1.035l1.108-1.625 c0.295-0.345,0.443-0.813,0.443-1.403c0-0.69-0.247-1.255-0.739-1.699c-0.492-0.492-1.083-0.739-1.772-0.739 c-0.395,0-0.764,0.074-1.108,0.222c-0.444-0.443-1.01-0.665-1.7-0.665c-0.689,0-1.231,0.197-1.626,0.591 c-0.491-0.394-1.058-0.591-1.698-0.591c-0.69,0-1.256,0.222-1.699,0.665c-0.395-0.147-0.763-0.222-1.108-0.222 c-0.69,0-1.281,0.247-1.773,0.739c-0.492,0.443-0.738,1.009-0.738,1.699c0,0.591,0.148,1.059,0.443,1.403L15.106,11.561 L15.106,11.561z"></path><polygon fill="#FFFFFF" points="21.508,19.216 21.508,21.161 19.563,21.161 19.563,19.216 17.618,19.216 17.618,17.271  19.563,17.271 19.563,15.326 21.508,15.326 21.508,17.271 23.453,17.271 23.453,19.216 "></polygon><path fill="#FFFFFF" d="M17.322,26.043c0-1.775,1.438-3.214,3.213-3.214c1.775,0,3.214,1.439,3.214,3.214s-1.438,3.213-3.214,3.213 C18.76,29.257,17.322,27.818,17.322,26.043L17.322,26.043z"></path><path fill="#FFFFFF" d="M14.071,30.547c0,1.575,0.493,2.954,1.478,4.137c0.985,1.181,2.216,1.921,3.694,2.216 c0.098,0.492,0.147,0.861,0.147,1.108c0.197,1.821-0.049,3.545-0.738,5.17c-0.64,1.626-1.601,3.004-2.881,4.137 c-0.05,0-0.075,0.05-0.075,0.147c0,0.148,0.075,0.223,0.222,0.223h9.234c0.147,0,0.221-0.074,0.221-0.223 c0-0.098-0.025-0.147-0.074-0.147c-1.28-1.133-2.266-2.511-2.955-4.137c-0.641-1.625-0.861-3.349-0.664-5.17 c0-0.247,0.048-0.616,0.147-1.108c1.477-0.295,2.709-1.035,3.693-2.216c0.985-1.183,1.478-2.562,1.478-4.137v-0.223 c0-0.098-0.073-0.147-0.222-0.147H14.293c-0.148,0-0.222,0.049-0.222,0.147V30.547L14.071,30.547z"></path><polygon fill="#FFFFFF" points="32.799,41.9 32.799,43.845 30.854,43.845 30.854,41.9 28.91,41.9 28.91,39.955 30.854,39.955  30.854,38.011 32.799,38.011 32.799,39.955 34.744,39.955 34.744,41.9 "></polygon><polygon fill="#FFFFFF" points="32.799,30.598 32.799,32.543 30.854,32.543 30.854,30.598 28.91,30.598 28.91,28.652 30.854,28.652  30.854,26.708 32.799,26.708 32.799,28.652 34.744,28.652 34.744,30.598 "></polygon><polygon fill="#FFFFFF" points="32.799,19.222 32.799,21.167 30.854,21.167 30.854,19.222 28.91,19.222 28.91,17.277 30.854,17.277  30.854,15.332 32.799,15.332 32.799,17.277 34.744,17.277 34.744,19.222 "></polygon><polygon fill="#FFFFFF" points="10.198,41.9 10.198,43.845 8.253,43.845 8.253,41.9 6.308,41.9 6.308,39.955 8.253,39.955  8.253,38.011 10.198,38.011 10.198,39.955 12.143,39.955 12.143,41.9 "></polygon><polygon fill="#FFFFFF" points="10.198,30.598 10.198,32.543 8.253,32.543 8.253,30.598 6.308,30.598 6.308,28.652 8.253,28.652  8.253,26.708 10.198,26.708 10.198,28.652 12.143,28.652 12.143,30.598 "></polygon><polygon fill="#FFFFFF" points="10.198,19.222 10.198,21.167 8.253,21.167 8.253,19.222 6.308,19.222 6.308,17.277 8.253,17.277  8.253,15.332 10.198,15.332 10.198,17.277 12.143,17.277 12.143,19.222 "></polygon><polygon fill="#FFFFFF" points="20.204,3.731 20.204,4.248 19.686,4.248 19.686,4.839 20.204,4.839 20.204,5.356 20.869,5.356  20.869,4.839 21.385,4.839 21.385,4.248 20.869,4.248 20.869,3.731 "></polygon></svg>