<svg xmlns="http://www.w3.org/2000/svg" viewBox="0 0 88.12 88.12"><defs><style>.cls-3{fill:#2c70b7}</style></defs><g id="Capa_2" data-name="Capa 2"><g id="Capa_1-2" data-name="Capa 1"><path d="M88.12 44.06A44.06 44.06 0 1 1 44.06 0a44.06 44.06 0 0 1 44.06 44.06" style="fill:#fff"/><path d="M73.82 52.1a1.17 1.17 0 0 0-.74-.26 1.19 1.19 0 0 0-.32 0l-.94.25a4.16 4.16 0 0 1-1.06.13h-.12l-2.78-.09a1.6 1.6 0 0 1-1.13-.5l-4.21-4.41a2.64 2.64 0 0 1-.69-1.49c-.21-1.8-.87-7.48-1.21-9.9A4.39 4.39 0 0 0 59 32.94a6.19 6.19 0 0 0-3.82-1.28h-4.83a1.65 1.65 0 0 0-.63.13 1.73 1.73 0 0 1 .18-1.91 5.1 5.1 0 0 0 1.65-3.75V22.23a5.57 5.57 0 0 0-2.12-4.36v-.94a3.59 3.59 0 0 0-7.18 0v.94a5.5 5.5 0 0 0-2.12 4.36v3.5a5.59 5.59 0 0 0 1.75 4l.07.08a1.71 1.71 0 0 1 .09 2 1.56 1.56 0 0 0-.79-.21h-4.81a6.16 6.16 0 0 0-3.81 1.28 4.4 4.4 0 0 0-1.63 3c-.34 2.41-1 8.18-1.21 9.9a2.64 2.64 0 0 1-.69 1.49l-4.21 4.41a1.58 1.58 0 0 1-1.12.5l-2.77.09h-.1a4.16 4.16 0 0 1-1.06-.13l-.94-.25a1.12 1.12 0 0 0-.31 0 1.17 1.17 0 0 0-.74.26 1.21 1.21 0 0 0-.48 1v1.81a2.17 2.17 0 0 0 1.07 1.87l.62.35a5 5 0 0 0-1.77 3.84V61a5.06 5.06 0 0 0 5.05 5h46a5.06 5.06 0 0 0 5-5v-.1A5 5 0 0 0 72 57.45l1.22-.71a2.19 2.19 0 0 0 1.06-1.87v-1.81a1.2 1.2 0 0 0-.47-1m-37.7 2.72a1.55 1.55 0 0 0-.11 1.1h-7.55l5.1-3.27a3.73 3.73 0 0 0 1.66-2.46l1.11-5.85c0-.24.08-.63.11-1.12l2 6.46Zm19.42 1.06a1.56 1.56 0 0 0-.09-1.06l-2.31-5.18 2.09-6.6a12.3 12.3 0 0 0 .13 1.34l1.1 5.85a3.71 3.71 0 0 0 1.67 2.46l5.1 3.27Z" style="fill:#d4f6ff"/><path d="M36.75 39.57a.5.5 0 0 0 .14-.55 2.71 2.71 0 0 1 .26-2.41.48.48 0 0 0-.21-.75.47.47 0 0 0-.59.16 3.77 3.77 0 0 0-.38 3.4.46.46 0 0 0 .24.27.51.51 0 0 0 .54-.12M36.76 40.05a.44.44 0 0 0-.37 0 .46.46 0 0 0-.28.43.51.51 0 0 0 .29.47.48.48 0 0 0 .65-.44.53.53 0 0 0-.29-.47" class="cls-3"/><path d="M71.06 52.05a1.22 1.22 0 0 0-.74-.25 1.1 1.1 0 0 0-.31 0l-.94.25a4.23 4.23 0 0 1-1.06.14h-.13l-2.78-.09a1.63 1.63 0 0 1-1.1-.47l-4.2-4.41a2.59 2.59 0 0 1-.7-1.49c-.2-1.8-.86-7.47-1.2-9.89a4.36 4.36 0 0 0-1.59-2.94 6.13 6.13 0 0 0-3.82-1.28h-4.9a1.48 1.48 0 0 0-.63.13 1.75 1.75 0 0 1 .18-1.92 5.08 5.08 0 0 0 1.65-3.75v-1.95a4.1 4.1 0 0 0 0-.5v-1.45a5.58 5.58 0 0 0-2.12-4.36v-.93a3.58 3.58 0 0 0-3.59-3.59 3.59 3.59 0 0 0-3.59 3.59v.93a5.52 5.52 0 0 0-2.11 4.36v3.5a5.55 5.55 0 0 0 1.75 4l.06.08a1.71 1.71 0 0 1 .09 2 1.6 1.6 0 0 0-.79-.2h-4.8a6.13 6.13 0 0 0-3.82 1.28 4.38 4.38 0 0 0-1.59 2.94c-.33 2.4-1 8.18-1.2 9.89a2.59 2.59 0 0 1-.7 1.49l-4.2 4.41a1.63 1.63 0 0 1-1.13.51l-2.78.09h-.13a4.29 4.29 0 0 1-1.06-.14l-.94-.25a1.1 1.1 0 0 0-.31 0 1.22 1.22 0 0 0-.74.25 1.2 1.2 0 0 0-.47 1v1.82a2.17 2.17 0 0 0 1.06 1.86l.62.36a5 5 0 0 0-1.77 3.83v.1a5.06 5.06 0 0 0 5 5.05h46A5.06 5.06 0 0 0 70.65 61v-.1a5.08 5.08 0 0 0-1.4-3.48l1.22-.71a2.18 2.18 0 0 0 1.06-1.86V53a1.2 1.2 0 0 0-.47-1m-41 12.75a2.41 2.41 0 0 1 0-1.74c.3-.47 1.05-.72 2.36-.81a4.12 4.12 0 0 0 1.27-.43c1.25-.55 2.73-1.2 4.22-1.73a6.4 6.4 0 0 1 2-.52 2.45 2.45 0 0 1 1.89 1.06l.06.07a1.62 1.62 0 0 0 .18.2 1.54 1.54 0 0 0 1.06.4 1.56 1.56 0 0 0 .4 0l18.29-4.18h3.81a3.71 3.71 0 0 1 1.73.42 3.81 3.81 0 0 1 2.08 3.39V61a3.82 3.82 0 0 1-3.81 3.8Zm.55-30.95a4.93 4.93 0 0 1 3.06-1h.65L33 37.6a6.31 6.31 0 0 0-.22 1.24v.13c0 .14 0 .29-.07.45-.06.36-.09 1-.13 1.81v.44c0 .92-.1 2-.17 2.36l-1.1 5.85a2.53 2.53 0 0 1-1.13 1.66l-6.7 4.29h-3.9a5 5 0 0 0-2.09.46h-.08l-1.11-.66a.93.93 0 0 1-.46-.8V53l.93.25a5.41 5.41 0 0 0 1.39.18h.15l2.78-.09a2.84 2.84 0 0 0 2-.88l4.21-4.42a3.82 3.82 0 0 0 1-2.19c.56-4.87 1-8.28 1.2-9.86a3.21 3.21 0 0 1 1.14-2.16m14.78-16.74a5.56 5.56 0 0 0-2.2-.46h-.31a5.53 5.53 0 0 0-2.2.46v-.2a2.36 2.36 0 0 1 4.71 0Zm-5.21 1.68a4.56 4.56 0 0 1 2.7-.94h.31a4.32 4.32 0 0 1 2.29.66 3.81 3.81 0 0 1 .41.29 4.36 4.36 0 0 1 1.27 1.65A5.11 5.11 0 0 0 43.7 19h-1.27a5.13 5.13 0 0 0-3.5 1.39 4.4 4.4 0 0 1 1.28-1.66m-1.65 5.36a3.87 3.87 0 0 1 3.87-3.86h1.27a3.87 3.87 0 0 1 3.86 3.86v1.95a3.9 3.9 0 0 1-3.26 3.86 4.7 4.7 0 0 1-1 .13h-.31a5 5 0 0 1-1.07-.13 3.9 3.9 0 0 1-3.28-3.82Zm2.12 6.63a5.25 5.25 0 0 0 1.35.4 4.91 4.91 0 0 0 .88.07h.31a4.68 4.68 0 0 0 .86-.07 5.3 5.3 0 0 0 1.48-.33 2.75 2.75 0 0 0 .53 1.81 1.67 1.67 0 0 0-.09.4c-.47 2.85-2.06 3.27-3 3.27s-2.51-.42-3-3.27v-.14a2.66 2.66 0 0 0 .65-2.06M43 37.47c3.15 0 4-3 4.19-4.3a.38.38 0 0 1 .37-.32h2.57a.37.37 0 0 1 .36.28l1.61 5.57c0 .24.09.5.14.79l-3.09 9.91a.7.7 0 0 0 0 .53l2.39 5.35a.37.37 0 0 1 0 .35.36.36 0 0 1-.31.17H34.84a.37.37 0 0 1-.32-.17.34.34 0 0 1 0-.35l2.39-5.35a.8.8 0 0 0 0-.53l-2.7-8.64a4.87 4.87 0 0 1-.2-1.89 15.19 15.19 0 0 1 .4-1.55c.13-.4.28-.89.45-1.59.24-.94.49-1.86.74-2.74a.4.4 0 0 1 .29-.14h2.57a.39.39 0 0 1 .37.31c.21 1.3 1 4.31 4.19 4.31m9.67 17.3-2.31-5.17 2.08-6.68c0 .56.08 1.06.13 1.34l1.1 5.84a3.79 3.79 0 0 0 1.67 2.47l5.1 3.26h-6.23a1.69 1.69 0 0 1-1.53-1m2.69 2.3-11.61 2.59-.22.05a3.37 3.37 0 0 1-.47.1s-.1-.08-.14-.13a4 4 0 0 0-3-1.58 3.64 3.64 0 0 0-1.29.24c-.49.15-1 .33-1.64.57l-8.42-1.84Zm-22-2.3a1.68 1.68 0 0 1-1.53 1h-6.17l5.1-3.26a3.79 3.79 0 0 0 1.67-2.47l1.1-5.84c0-.25.08-.64.11-1.13l2 6.47Zm1.54 5c-.63.26-1.23.53-1.81.79a3.37 3.37 0 0 1-1.38.36L31 61a3.11 3.11 0 0 0-2.14 1.27 2.37 2.37 0 0 0-.36 1.93 4 4 0 0 0 .15.62h-9.07A3.82 3.82 0 0 1 15.77 61v-.1a3.81 3.81 0 0 1 2.08-3.39 3.71 3.71 0 0 1 1.73-.42h3.92Zm34.94-4.11-1.12.66h-1a5 5 0 0 0-2.09-.46h-2.94L56 51.54a2.53 2.53 0 0 1-1.13-1.66L53.79 44c-.07-.39-.13-1.44-.17-2.37v-.27c0-.72-.07-1.41-.12-1.82a1.63 1.63 0 0 0 0-.66l-.22-.75c-.1-.43-.2-.79-.33-1.19l-.06-.2-.39-1.14v-.17c-.31-1.2-.55-2.07-.7-2.59h.7a4.93 4.93 0 0 1 3.06 1 3.21 3.21 0 0 1 1.1 2.16c.28 2 .81 6.47 1.2 9.86a3.82 3.82 0 0 0 1 2.19l4.21 4.42a2.86 2.86 0 0 0 2 .88l2.78.09H68a5.41 5.41 0 0 0 1.39-.18l.93-.26v1.82a.93.93 0 0 1-.46.8" class="cls-3"/></g></g></svg>