<svg xmlns="http://www.w3.org/2000/svg" viewBox="0 0 88.12 88.12"><defs><style>.cls-2{fill:#d2f4ff}.cls-3{fill:#2c70b5}</style></defs><g id="Capa_2" data-name="Capa 2"><g id="Capa_1-2" data-name="Capa 1"><path d="M88.12 44.06A44.06 44.06 0 1 1 44.06 0a44.06 44.06 0 0 1 44.06 44.06" style="fill:#fff"/><path d="M61.74 55.93c-1.41 1.77-2.48 3.9-3.9 6-1.06 1.42-1.77 2.84-2.83 4.26a14.36 14.36 0 0 0-1.77 2.48 10.46 10.46 0 0 1-8.51 4.6c-3.9-.35-6.73-2.83-8.51-6-3.54-7.09-10.28-12.76-8.5-21.27a10.19 10.19 0 0 1 9.21-8.15c8.15-.35 18.07-2.48 24.46 4.25 3.54 3.9 2.48 9.57.35 13.83M50.05 24c.35 3.9-2.13 7.44-4.26 10.63-1.41-3.19-2.48-6.73-5-9.22-.71-4.25 1.42-8.86 4.61-11.69A11.82 11.82 0 0 1 50.05 24M64.22 23.67a13.68 13.68 0 0 1-2.83 7.09c-.71.36-1.06 1.06-1.77 1.77-3.55 2.84-8.16 3.55-12.41 3.19 1.77-2.83 2.84-6 5-9.21 2.48-3.9 7.8-4.26 12-2.84M44.38 35.37a13.93 13.93 0 0 1-8.51-.37c-.71-.35-1.77-.7-2.48-1.06-3.9-2.48-6.38-6-6.74-10.28 8.16-3.19 15.6 4.26 17.73 11.7" class="cls-2"/><path d="M63.87 21.55C60 18.36 54 20.13 50.05 22.61a16.46 16.46 0 0 0-6.74-12.76 16.49 16.49 0 0 0-6.38 12.4 15.63 15.63 0 0 0-14.18-1.77 15.11 15.11 0 0 0 11 14.18 13.55 13.55 0 0 0-9.57 6.73c-3.9 8.16 2.48 15.6 6.74 22.33.71 1.07.71 1.78 1.41 2.84 2.49 3.54 5.68 6.38 9.93 6.73a10.51 10.51 0 0 0 9.57-5c4.61-7.8 12.76-14.53 10.63-24.46-.35-.7-.71-1.77-1.06-2.48a11.45 11.45 0 0 0-8.51-6c1.77-1.07 4.26-1.42 5.67-2.84.36-.71 1.07-1.06 1.78-1.77a17.38 17.38 0 0 0 3.54-9.21M43.31 12a13 13 0 0 1 5 12.4 15.46 15.46 0 0 1-4.6 8.51 15.69 15.69 0 0 0-5-8.86 15.26 15.26 0 0 1 4.61-12m-18.79 9.5C33 19.06 41.19 25.8 42.25 34c-7.8.71-17-3.9-17.72-12.4M61 46.71c.36 3.19-1.06 6-2.83 8.86-3.19 4.25-5 8.86-8.86 12.76-2.13 2.13-5 3.9-8.15 3.19a13.9 13.9 0 0 1-7.45-6 30.52 30.52 0 0 0-3.54-5.68c-2.48-4.25-5.67-8.15-5.67-13.11a10.63 10.63 0 0 1 7.5-9.94c6.38-1.78 12.41-1.07 18.79-.36C55.72 37.14 61 41 61 46.71M45.08 34c1.78-2.84 4.26-5.32 4.61-8.86 2.84-3.19 8.15-4.25 12.41-2.84-.36 8.16-9.22 13.83-17 11.7" class="cls-3"/><path d="M34.81 45.29c-.71 0-1.42 0-1.42 1.42 0 .71.35 1.77 1.42 1.77.71 0 1.06-1.06 1.06-1.77s0-1.06-1.06-1.42M40.12 48.48a1.94 1.94 0 0 0 1.07-1.77c0-.71 0-1.06-1.07-1.42-.71 0-1.06.36-1.06 1.42a1.94 1.94 0 0 0 1.06 1.77M45.44 45.29c-.71 0-1.06.36-1.06 1.42a1.94 1.94 0 0 0 1.06 1.77c.71 0 1.06-1.06 1.06-1.77s0-1.06-1.06-1.42M50.76 48.48a3.52 3.52 0 0 0 1.41-1.77c0-.71 0-1.42-1.41-1.42-.71 0-1.07.36-1.07 1.42a1.94 1.94 0 0 0 1.07 1.77M37.29 51.32a1.94 1.94 0 0 0-1.07 1.77c0 .71 0 1.06 1.07 1.42.71 0 1.06-.36 1.06-1.42a1.94 1.94 0 0 0-1.06-1.77M42.6 51.32a1.94 1.94 0 0 0-1.06 1.77c0 .71 0 1.06 1.06 1.42.71 0 1.42 0 1.42-1.42a1.8 1.8 0 0 0-1.42-1.77M40.12 57.7c-.71 0-1.06.35-1.06 1.42a2 2 0 0 0 1.06 1.77c.71 0 1.07-.36 1.07-1.42 0-.71 0-1.42-1.07-1.77M45.44 57.7c-.71 0-1.06.35-1.06 1.42a2 2 0 0 0 1.06 1.77c.35 0 .35-.36.71-.36a3.1 3.1 0 0 0 .35-2.48 1.31 1.31 0 0 0-1.06-.35M47.92 54.51c.71 0 1.42 0 1.42-1.42 0-.71-.36-1.77-1.42-1.77-.71 0-1.06 1.06-1.06 1.77s0 1.06 1.06 1.42M57.64 47.19a6.15 6.15 0 0 0-2.46-5c-.85-.55 0-1.86.9-1.3a7.78 7.78 0 0 1 3.14 6.47c0 1-1.57.9-1.58-.12M58.47 48.88a.79.79 0 0 1-.12 1.58.79.79 0 0 1 .12-1.58" class="cls-3"/></g></g></svg>