<svg xmlns="http://www.w3.org/2000/svg" id="Capa_2" data-name="Capa 2" viewBox="0 0 434.04 434.04"><defs><style>      .cls-1 {        fill: #fff;      }      .cls-2 {        fill: #107bc0;      }      .cls-3 {        fill: #0e79be;        stroke: #0e79be;        stroke-miterlimit: 10;        stroke-width: 10px;      }      .cls-4 {        fill: #d6edf8;      }      .cls-5 {        fill: #2d71b8;      }    </style></defs><g id="Capa_1-2" data-name="Capa 1"><g><circle class="cls-1" cx="217.02" cy="217.02" r="217.02"></circle><g><g><g><path class="cls-4" d="m312.49,247.25c2.57,2.44,4.18,5.87,4.18,9.66v49.61c0,7.35-6,13.34-13.36,13.34H102.49c-7.34,0-13.32-5.98-13.32-13.34v-49.61c0-7.35,5.98-13.34,13.32-13.34h2.22v-30.6h15.14c12.52,0,22.7,10.18,22.7,22.7v7.91h21.38v18.4c0,4.71,3.84,8.56,8.57,8.56h.45c4.71,0,8.56-3.84,8.56-8.56v-18.4h54.12l155.93-77.07,16.55,33.5-95.62,47.24Z"></path><path class="cls-4" d="m194.6,206.56c-2.71-5.96-4.98-12.53-4.51-19.17.4-5.67,3.33-10.67,7.84-14.07,10.67-8.03,24.8-6.27,37.16-4.57,1.23.17,2.84-.28,3.08-1.75,1.12-6.62-3-12.57-4.47-18.84-1.49-6.33-1.59-13.06.4-19.3,3.32-10.38,14.12-19,25.39-16.55,3.15.69,4.49-4.15,1.33-4.84-12.3-2.68-24.97,4.94-30.04,16.16-2.92,6.46-3.72,13.6-2.83,20.61.45,3.54,1.25,7.01,2.44,10.37.99,2.79,2.71,5.82,3,8.88-13.6-1.76-28.21-2.59-39.45,6.62-5.27,4.32-8.39,10.46-8.86,17.26-.51,7.54,2.12,14.94,5.19,21.7,1.34,2.96,5.66.41,4.33-2.51Z"></path><path class="cls-4" d="m257.57,138.94c-.85,3.1-.11,5.97,1,8.91,3.48,9.18,8.24,20.4,5.5,30.35-1.44,5.24-5.58,8.8-10.7,10.36-8.16,2.48-16.63-1.63-24.85-1.73-7.29-.09-15.32,2.5-18.08,9.91-1.62,4.36-.94,9.18-.03,13.61,1,4.9,2.58,9.61,4.54,14.21,1.26,2.96,5.58.41,4.33-2.53-1.69-3.95-2.97-8.08-3.88-12.27-.79-3.63-1.59-7.77-.24-11.37,2.29-6.1,10.04-6.89,15.63-6.44,7.99.65,15.89,3.88,23.91,1.44,5.26-1.6,10.14-4.96,12.67-9.94,4.72-9.26,1.76-20.62-1.4-29.88-.79-2.31-1.64-4.59-2.51-6.87-.91-2.39-1.83-4.73-.83-7.2,1.42-3.5,5.3-5.63,8.59-7.06,4.84-2.1,10.2-3.24,15.43-3.88,2.52-.31,5.06-.5,7.59-.54,1,0,2,0,3,.04.48.02.96.06,1.44.1.54.05.71.08.81.1,3.16.5,4.52-4.33,1.33-4.84-3.98-.63-8.06-.48-12.06-.11-5.29.5-10.6,1.42-15.65,3.09-4.46,1.47-9.14,3.53-12.38,7.04-1.43,1.58-2.6,3.43-3.16,5.5Z"></path></g><g><path class="cls-2" d="m396.12,193.58l-16.55-33.49-155.91,77.06h-54.14v18.4c0,4.72-3.84,8.56-8.56,8.56h-.45c-4.73,0-8.58-3.84-8.58-8.56v-18.4h-21.37v-7.9c0-12.52-10.18-22.7-22.7-22.7h-15.13v30.6h-2.22c-7.35,0-13.33,5.99-13.33,13.35v49.61c0,7.35,5.98,13.33,13.33,13.33h200.81c7.36,0,13.35-5.98,13.35-13.33v-49.61c0-3.8-1.61-7.23-4.17-9.66l95.62-47.26Zm-19.59-24.54l10.63,21.51-50.29,24.85-10.63-21.5,50.29-24.86Zm-56.28,27.82l10.63,21.5-38.16,18.86c-.46-.05-.92-.07-1.4-.07h-52.58l81.51-40.29Zm-220.84,16.37h8.45c8.83,0,16.01,7.18,16.01,16.01v7.9h-24.46v-23.91Zm198.57,86.87c0,3.66-2.99,6.64-6.66,6.64H90.51c-3.66,0-6.64-2.98-6.64-6.64v-9.7h214.12v9.7h0Zm0-16.38H83.86v-33.22c0-3.67,2.98-6.66,6.64-6.66h54.74v11.72c0,8.41,6.85,15.25,15.26,15.25h.45c8.41,0,15.25-6.84,15.25-15.25v-11.72h115.12c3.67,0,6.66,2.99,6.66,6.66v33.22Z"></path><path class="cls-2" d="m182.62,193.29c-2.71-5.96-4.98-12.53-4.51-19.17.4-5.67,3.33-10.67,7.84-14.07,10.67-8.03,24.8-6.27,37.16-4.57,1.23.17,2.84-.28,3.08-1.75,1.12-6.62-3-12.57-4.47-18.84-1.49-6.33-1.59-13.06.4-19.3,3.32-10.38,14.12-19,25.39-16.55,3.15.69,4.49-4.15,1.33-4.84-12.3-2.68-24.97,4.94-30.04,16.16-2.92,6.46-3.72,13.6-2.83,20.61.45,3.54,1.25,7.01,2.44,10.37.99,2.79,2.71,5.82,3,8.88-13.6-1.76-28.21-2.59-39.45,6.62-5.27,4.32-8.39,10.46-8.86,17.26-.51,7.54,2.12,14.94,5.19,21.7,1.33,2.96,5.65.41,4.33-2.51Z"></path><path class="cls-2" d="m245.58,132.53c-.85,3.1-.11,5.97,1,8.91,3.48,9.18,8.24,20.4,5.5,30.35-1.44,5.24-5.58,8.8-10.7,10.36-8.16,2.48-16.63-1.63-24.85-1.73-7.29-.09-15.32,2.5-18.08,9.91-1.62,4.36-.94,9.18-.03,13.61,1,4.9,2.58,9.61,4.54,14.21,1.26,2.96,5.58.41,4.33-2.53-1.69-3.95-2.97-8.08-3.88-12.27-.79-3.63-1.59-7.77-.24-11.37,2.29-6.1,10.04-6.89,15.63-6.44,7.99.65,15.89,3.88,23.91,1.44,5.26-1.6,10.14-4.96,12.67-9.94,4.72-9.26,1.76-20.62-1.4-29.88-.79-2.31-1.64-4.59-2.51-6.87-.91-2.39-1.83-4.73-.83-7.2,1.42-3.5,5.3-5.63,8.59-7.06,4.84-2.1,10.2-3.24,15.43-3.88,2.52-.31,5.06-.5,7.59-.54,1,0,2,0,3,.04.48.02.96.06,1.44.1.54.05.71.08.81.1,3.16.5,4.52-4.33,1.33-4.84-3.98-.63-8.06-.48-12.06-.11-5.29.5-10.6,1.42-15.65,3.09-4.46,1.47-9.14,3.53-12.38,7.04-1.43,1.57-2.6,3.43-3.16,5.5Z"></path></g></g><g><path class="cls-5" d="m98.01,269.3c.83-.71,1.14-1.75.82-2.8-1.07-3.53-1.17-8.6,1.77-12.21.5-.61.69-1.34.53-2.05-.17-.77-.72-1.45-1.47-1.82-1.11-.55-2.33-.28-3.11.67-3.5,4.29-4.48,10.88-2.56,17.2.2.67.61,1.17,1.18,1.45.88.44,2.01.26,2.84-.44Z"></path><path class="cls-5" d="m97.95,271.75c-.6-.3-1.27-.31-1.94-.04-.91.37-1.48,1.15-1.52,2.1-.04,1.03.53,2.02,1.42,2.46.6.3,1.27.31,1.94.04.91-.37,1.48-1.15,1.52-2.1.04-1.04-.53-2.03-1.42-2.46Z"></path></g></g><g><path class="cls-3" d="m217.02,420.71c-112.32,0-203.69-91.37-203.69-203.69,0-47.67,16.81-94.03,47.33-130.54.21-.26.46-.56.72-.86,5.11-6.05,10.65-11.89,16.45-17.31C115.68,32.86,165.11,13.34,217.02,13.34c112.32,0,203.69,91.37,203.69,203.69,0,49.23-17.8,96.75-50.12,133.82-5.48,6.29-11.39,12.28-17.56,17.8-37.39,33.57-85.69,52.06-136.01,52.06Zm0-395.96c-48.99,0-95.65,18.43-131.38,51.89-5.47,5.12-10.71,10.63-15.56,16.38l-.61.73c-28.85,34.51-44.71,78.27-44.71,123.27,0,106.02,86.25,192.27,192.27,192.27,47.49,0,93.09-17.46,128.38-49.15,5.83-5.22,11.4-10.87,16.58-16.8,30.51-34.98,47.31-79.84,47.31-126.31-.01-106.02-86.26-192.28-192.28-192.28Z"></path><path class="cls-3" d="m367.65,345.19c-5.33,6.11-11.03,11.9-17.07,17.3L66.4,88.25c.22-.27.44-.53.66-.8,5.01-5.94,10.36-11.57,16.03-16.87l284.56,274.61Z"></path></g></g></g></svg>