<svg xmlns="http://www.w3.org/2000/svg" viewBox="0 0 88.12 88.12"><defs><style>.cls-3{fill:#2c70b7}</style></defs><g id="Capa_2" data-name="Capa 2"><g id="Capa_1-2" data-name="Capa 1"><path d="M88.12 44.06A44.06 44.06 0 1 1 44.06 0a44.06 44.06 0 0 1 44.06 44.06" style="fill:#fff"/><path d="M76.07 54c-1.48-1.9-4.26-2.58-6.28-3.64-.78-.4-1.59-.78-2.36-1.2.74-.14.72-1.33-.08-1.27-.55 0-1.09 0-1.64.07a17 17 0 0 1-2-2.23c.81-.08.81-1.35 0-1.29h-1a78.73 78.73 0 0 1-1.91-2.19h.09c.82-.07.83-1.36 0-1.29h-1.1a50.87 50.87 0 0 1-1.67-2.2c.83-.07.83-1.36 0-1.29h-.91c-.29-.43-.59-.86-.86-1.3-.16-.26-.32-.57-.48-.89H56c.82-.07.83-1.36 0-1.29h-.71c-.71-1.45-1.53-3-2.72-3.48a2.85 2.85 0 0 0-.52-.15c-.2-.64-.45-1.3-.71-1.91a1.5 1.5 0 0 0-.49-.79c-.8-.57-2.47-.41-3.35-.22-2.6.57-3 2.89-3.17 5.19a5.34 5.34 0 0 1-1.37.2 3.88 3.88 0 0 1-.82-.09 9.81 9.81 0 0 1-5.33-3.7c-.93-1.45-.36-3.78-1.86-4.81a2.08 2.08 0 0 0-.5-.24 2.94 2.94 0 0 0-2-4.76A1.6 1.6 0 0 0 30.59 21c0 .64.49 1.08.79 1.59a2.13 2.13 0 0 1-.38 2.58c-3.13 2.57-8.42 5.6-7.67 10.36-2.94 1.25-2.81 6-1.07 8.19 3.2 4 8.35 6 12.84 8.06a53.25 53.25 0 0 1 6.76 3.48c2.77 1.79 4.94 4.22 7.5 6.28 4 3.2 7.23 3.5 12.17 3.56 2.85 0 5.71 0 8.55-.17 2-.14 3.75-.19 5.29-1.57a6.72 6.72 0 0 0 .7-9.36M47.64 28.9a3.67 3.67 0 0 1 2.2 0c.34.19.65 1 .85 1.63a15.22 15.22 0 0 0-3.3 1.07c-.57.23-1.16.5-1.76.75.11-1.48.36-3 2-3.46m-14.74-8A1.7 1.7 0 0 1 33 23.8a.76.76 0 0 0-.09.09 2.94 2.94 0 0 0-.23-1.58c-.17-.35-.48-.62-.64-1-.31-.69.3-.75.83-.47" style="fill:#d4f6ff"/><path d="M73.11 54.31c-1.48-1.9-4.26-2.57-6.28-3.63-.77-.41-1.58-.78-2.35-1.21.73-.14.72-1.33-.08-1.27-.55 0-1.1.06-1.65.07a16.94 16.94 0 0 1-2-2.23c.8-.08.81-1.35 0-1.28h-1c-.66-.73-1.29-1.46-1.91-2.2h.08c.83-.07.83-1.36 0-1.29h-1.1c-.57-.72-1.13-1.45-1.67-2.2h.06c.82-.06.83-1.36 0-1.29h-.91c-.29-.44-.59-.86-.87-1.31-.16-.26-.32-.56-.48-.88H53c.82-.06.83-1.35 0-1.29h-.71c-.71-1.45-1.54-3-2.72-3.48a3.1 3.1 0 0 0-.52-.15c-.21-.64-.45-1.3-.71-1.91a1.56 1.56 0 0 0-.49-.79c-.8-.57-2.48-.41-3.36-.22-2.6.57-3 2.89-3.16 5.19a4.39 4.39 0 0 1-2.19.11 9.79 9.79 0 0 1-5.34-3.7c-.93-1.45-.35-3.78-1.86-4.8a1.8 1.8 0 0 0-.5-.25 2.94 2.94 0 0 0-1.95-4.76 1.61 1.61 0 0 0-1.89 1.6c0 .63.5 1.07.79 1.58a2.13 2.13 0 0 1-.39 2.73c-3.13 2.57-8.41 5.6-7.67 10.36-2.94 1.25-2.81 6-1.06 8.2 3.19 4 8.34 6 12.83 8a52.59 52.59 0 0 1 6.76 3.48c2.77 1.8 4.95 4.23 7.5 6.28 4 3.2 7.24 3.51 12.17 3.57 2.86 0 5.71 0 8.56-.18 2-.14 3.74-.19 5.29-1.57a6.73 6.73 0 0 0 .71-9.34m.25 4.55c-3.49 2.16-8.91 1.79-12.84 1.4a19.43 19.43 0 0 1-5.31-1.33c.83-2.53 4.4-3.11 6.6-2.85a11.66 11.66 0 0 0 3.21.28 6.53 6.53 0 0 0 4.21-3.3A8.6 8.6 0 0 1 71 54.13a6.9 6.9 0 0 1 2.38 4.73m-22.6-24.35c-.9 0-1.8 0-2.71-.07s-.82 1.24 0 1.29a34.08 34.08 0 0 0 3.5 0c.43.76.83 1.53 1.21 2.2-.85 0-1.7 0-2.54-.07s-.83 1.24 0 1.29c1.11.07 2.23.07 3.35 0 .49.74 1 1.47 1.54 2.18-.73 0-1.45 0-2.18-.06s-.83 1.24 0 1.29c1.06.07 2.12.07 3.17 0 .59.74 1.18 1.46 1.79 2.18-.71 0-1.41 0-2.12-.06s-.83 1.24 0 1.29c1.07.07 2.13.07 3.2 0 .64.73 1.28 1.45 1.93 2.16h-1.48c-.83-.06-.82 1.23 0 1.29s1.91.07 2.86 0a10.17 10.17 0 0 0 1.14.75c-4.19 2.48-8.09-2.89-10.47-5.74a71.32 71.32 0 0 1-7.76-11.8 5.19 5.19 0 0 1 2.37-.59 4.72 4.72 0 0 1 3.2 2.31m-6.1-5.33a3.67 3.67 0 0 1 2.2 0c.34.19.65 1 .85 1.63a16 16 0 0 0-3.3 1.08c-.56.22-1.15.49-1.75.74.1-1.48.35-3 2-3.45m-12.63-.32a7.94 7.94 0 0 0 2.29 3.3c2.25 1.9 5.17 3.15 8 2.11a15.13 15.13 0 0 0 1.7-.8c.3.55.63 1.08.93 1.62-3.12 1.24-5.94 1.65-9.23.47-4-1.44-6.13-4.86-7-8.94l.48-.39c1.81-1.53 2.33 1.5 2.78 2.76m-2.11-7.72a1.7 1.7 0 0 1 .14 2.93l-.1.1a3 3 0 0 0-.23-1.59c-.17-.35-.47-.62-.63-1-.32-.69.3-.75.82-.48m-2.27 6.19c2 8.55 9.92 12.08 17.95 8.75a86.81 86.81 0 0 0 8.76 12.28c2.56 3 6.85 5.08 10.33 2.66l.53.27c.8.41 1.8.79 2.79 1.21A4.92 4.92 0 0 1 63.41 55a25.25 25.25 0 0 0-3.78-.31c-2.11.22-4.8 1.6-5.6 3.71a33.28 33.28 0 0 1-7-4.57l-.24-.21a.81.81 0 0 0 .23-.28c1.25-3.06-.15-6.71-2.6-8.76-2.9-2.42-6.33-2.58-9.86-1.79a.53.53 0 0 0-.26.13c-4.09-2.57-8.38-4.88-12.66-7.09-.77-3.76 3.11-6.38 6-8.5m18.21 25.46c-3.3-3-6.1-6.36-9.87-8.83l-.16-.1a9.22 9.22 0 0 1 7.26 1.3c2.37 1.65 3.79 4.84 2.77 7.63m25.89 9.68c-2 1.62-4.94 1.53-7.44 1.61-3.86.12-8.83.8-12.52-.48-4.27-1.48-7.11-5.42-10.63-8s-7.83-4.28-11.85-6.19a34.79 34.79 0 0 1-6.38-3.73 11.78 11.78 0 0 1-3.22-3.19c-.77-1.44-.48-4.8 1.36-5.48a120.9 120.9 0 0 1 15.65 9c4.93 3.57 8.55 8.5 13.7 11.87a23 23 0 0 0 12.09 3.8c3.35.16 7.49.29 10.65-1.23a4.12 4.12 0 0 1-1.41 2" class="cls-3"/><path d="M26.07 44.43c-1.64-.67-4.15-2.43-4.24-4.43 0-.82-1.33-.83-1.29 0 .12 2.63 3 4.73 5.18 5.63.77.31 1.11-.93.35-1.24M27.44 45.59a.65.65 0 0 0 0 1.29.65.65 0 0 0 0-1.29M21.86 27.87h-5.58a.74.74 0 1 1 0-1.48h5.58a.74.74 0 0 1 0 1.48M26.23 54a.71.71 0 0 1-.52-.22.72.72 0 0 1 0-1 .75.75 0 0 1 1 0 .72.72 0 0 1 0 1 .52.52 0 0 1-.11.1l-.13.06-.14.05h-.14M24.08 54H11.85a.74.74 0 1 1 0-1.48h12.23a.74.74 0 0 1 0 1.48M30.56 56.91h-8.95a.74.74 0 0 1 0-1.48h9a.74.74 0 0 1 0 1.48" class="cls-3"/></g></g></svg>